<svg id="Warstwa_1" data-name="Warstwa 1" xmlns="http://www.w3.org/2000/svg" viewBox="0 0 255.03 609.05"><defs><style>.cls-1{fill:#231f20;}.cls-2{fill:#242021;}.cls-3{fill:#2a2627;}.cls-4{fill:#cfcccd;}.cls-5{fill:#fefefe;}.cls-6{fill:#fdfdfd;}.cls-7{fill:#010101;}</style></defs><title>191026,Logo_Atelier_Myszkowski, grafika wektorowa</title><path class="cls-1" d="M536,798q0-11.16,0-22.32c0-1.83,0-1.85,1.84-1.86,2.4,0,4.8-.06,7.2,0,3.61.09,6.08,2.32,6.19,6,.16,5.27,0,10.55,0,15.83,0,.32-.08.64-.1,1,0,1.08-1.33,1.84-1.19,2.68S551,801,551.13,802a17.74,17.74,0,0,1,.15,1.91c0,5.52,0,11,0,16.56,0,1.24-.36,1.67-1.62,1.63-4.14-.11-3.3.42-3.35-3.21-.05-4.32,0-8.64,0-13,0-.64,0-1.28,0-1.92a3.44,3.44,0,0,0-4.85-2.7c-.55.26-.44.79-.45,1.24q0,3.36,0,6.72c0,3.76,0,7.52,0,11.28,0,1.14-.34,1.57-1.5,1.55-4.42-.07-3.54.33-3.56-3.28,0-7,0-13.92,0-20.87Z" transform="translate(-296.67 -254.31)"/><path class="cls-1" d="M306,791.7c-1.3,9.58-2.65,19.14-3.86,28.72-.18,1.38-.64,1.77-1.92,1.67-1.1-.08-2.21,0-3.42,0-.32-2,.29-3.75.55-5.51,1.47-9.94,3.05-19.87,4.58-29.8.56-3.63,1.06-7.27,1.64-10.89.14-.86-.12-2,1.36-2.12,2.38-.21,3.54.15,4,1.64a21.39,21.39,0,0,1,.65,3.28q2.49,16.22,5,32.44c.54,3.54,1.1,7.08,1.65,10.68-1.37.49-2.65.18-3.89.29-1.06.08-1.51-.26-1.65-1.43-.89-7.21-1.87-14.41-2.84-21.61-.31-2.29-.67-4.58-1-6.87a3.46,3.46,0,0,1-.43-1.2C306.17,791.18,306.19,791.51,306,791.7Z" transform="translate(-296.67 -254.31)"/><path class="cls-1" d="M392,794.39c.21.76-.21,1.12-.32,1.57-.63,2.51-2.27,3.42-4.79,3.28-1.74-.1-2,.2-2,1.89,0,5,0,9.92,0,14.88,0,1,.39,1.39,1.41,1.38,2.87,0,5.74,0,8.76,0a9.29,9.29,0,0,1-1.29,3.43,2.46,2.46,0,0,1-2.42,1.25c-3.44,0-6.88,0-10.32,0-1,0-1.23-.46-1.16-1.33,0-.47,0-1,0-1.43V777.56c0-.64,0-1.28,0-1.92,0-1.11.56-1.84,1.74-1.85,4.15,0,8.3,0,12.51,0,0,1.27-.73,2.09-1.1,3a2.89,2.89,0,0,1-2.83,1.85c-1.2.05-2.4.06-3.6,0s-1.65.36-1.65,1.5c0,4.31,0,8.63-.06,13,0,1.14.59,1.3,1.51,1.28C388.28,794.36,390.17,794.39,392,794.39Z" transform="translate(-296.67 -254.31)"/><path class="cls-1" d="M508.39,794.27c-.31.83-.47,1.2-.59,1.58-.72,2.47-2.21,3.71-4.93,3.47-1.7-.14-1.95.2-2,1.91,0,4.88,0,9.75,0,14.63,0,1.21.5,1.49,1.58,1.46,2.23-.05,4.47,0,6.71,0,.61,0,1.28-.22,2,.39-.41,1-.79,2-1.28,3a2.48,2.48,0,0,1-2.34,1.39c-3.52,0-7,0-10.55.05-1.13,0-1-.73-1-1.46,0-4.23,0-8.47,0-12.71q0-15.59.05-31.17c0-.32,0-.64,0-1,.09-1.64.37-2,2-2,2.87,0,5.75,0,8.63,0H510c-.72,4-1.78,4.87-5.43,4.9s-3.64-.7-3.63,3.55c0,3.52,0,7,0,10.56,0,1.16.38,1.54,1.52,1.5C504.28,794.22,506.18,794.27,508.39,794.27Z" transform="translate(-296.67 -254.31)"/><path class="cls-1" d="M472.87,845.91c.49-4,1-7.92,1.47-11.89.33-2.87.35-2.91,3.66-2.44-.28,2.57-.55,5.16-.87,7.73q-1.36,11.06-2.76,22.1c-.22,1.76-.31,1.81-2,1.77-.9,0-1.23-.35-1.34-1.25-.43-3.48-.94-7-1.44-10.43a12.52,12.52,0,0,0-.87-3.44c-.64,4.58-1.31,9.15-1.92,13.73-.12,1-.42,1.42-1.47,1.39-1.5,0-1.68-.1-1.89-1.77-.46-3.56-.88-7.13-1.32-10.69-.73-5.87-1.47-11.72-2.16-17.59-.08-.64-.72-1.64.71-1.8,1.76-.19,2.41.14,2.6,1.59.53,4,1,8.08,1.51,12.12a7.19,7.19,0,0,0,.44,2.34c.18.17.35.41.48,0,.46-3,.92-6,1.4-9a4.42,4.42,0,0,1,.32-1.38,2,2,0,0,1,2.23-1.07c.87.12.75.91.85,1.5.52,3.15,1,6.31,1.54,9.46C473.09,847.27,472.47,846.12,472.87,845.91Z" transform="translate(-296.67 -254.31)"/><path class="cls-1" d="M356.26,773.89c-1.1,4.57-2.12,4.74-5.32,4.72-3.81,0-3.76-.4-3.76,3.79q0,18.6,0,37.2c0,.48,0,1,0,1.44,0,.23,0,.59-.13.67-1.18.68-2.46.35-3.7.28-.8,0-1-.67-1-1.38s0-1.12,0-1.68q0-18.84,0-37.68c0-.56,0-1.12,0-1.68,0-.74-.35-1-1-1-1.35,0-2.71,0-4.07,0-2.05,0-2.05,0-2-2.15,0-.32,0-.64,0-1a1.59,1.59,0,0,1,1.63-1.69c.32,0,.64,0,1,0h17.52C355.63,773.78,355.94,773.85,356.26,773.89Z" transform="translate(-296.67 -254.31)"/><path class="cls-2" d="M304.37,850c1.12-5.55,2.22-11.11,3.36-16.65.36-1.75.78-2,2.39-2,.76,0,1.21.24,1.17,1.09,0,.47,0,.95,0,1.43V860.5c0,.24,0,.48,0,.72,0,1.92,0,1.92-1.53,1.94s-1.61,0-1.61-1.85c0-4.32,0-8.63,0-12.94-.78,0-.71.54-.81,1-.5,2.26-1,4.52-1.51,6.78-.37,1.62-1.51,1.92-2.74.74a4.1,4.1,0,0,1-1-2.13c-.5-2.15-1-4.31-1.52-6.51-.74.5-.43,1.14-.44,1.68,0,3.75,0,7.51,0,11.27,0,2-.3,2.17-2.22,2-.67-.06-1.05-.29-1.05-1s0-1.12,0-1.68q0-13.31,0-26.62a6.57,6.57,0,0,1,.15-2.34c3-.31,3.07-.23,3.61,2.4q1.5,7.27,3,14.53c.11.54.3,1.06.45,1.58Z" transform="translate(-296.67 -254.31)"/><path class="cls-1" d="M437.47,817.37a9,9,0,0,1-.94,2.8,2.7,2.7,0,0,1-2.76,1.88c-3.68,0-7.36,0-11,0-.77,0-1.22-.24-1.16-1.1,0-.47,0-1,0-1.44V776.35c0-.56,0-1.12,0-1.68,0-.22.07-.59.21-.64a6.54,6.54,0,0,1,3.51-.12c.83.11,1.13.8,1.16,1.59s0,1.28,0,1.92V807.9c0,.4,0,.8,0,1.2.16,2.68-.37,5.39.29,8,2.61.5,5.24.1,7.86.22C435.52,817.41,436.39,817.37,437.47,817.37Z" transform="translate(-296.67 -254.31)"/><path class="cls-1" d="M460.45,797.66c0-7.26,0-14.53,0-21.8,0-.91-.49-2.11,1.33-2.11,2.61,0,3.35.31,3.55,2.11a11.5,11.5,0,0,1,0,1.44v42.64c0,.4,0,.8,0,1.2,0,.22,0,.58-.16.65a6.79,6.79,0,0,1-3.71.22c-.93-.08-1.06-.81-1.06-1.59V797.66Z" transform="translate(-296.67 -254.31)"/><path class="cls-2" d="M446,847.13c0,3.83,0,7.67,0,11.5,0,3.18-1.52,4.65-4.71,4.71-.56,0-1.12,0-1.68,0a4,4,0,0,1-4.18-4.26c-.05-1.36,0-2.72,0-4.08,0-6.39,0-12.78,0-19.17,0-3.37,1.44-4.77,4.81-4.83.48,0,1,0,1.44,0,2.7.12,4.29,1.69,4.32,4.39C446.05,839.3,446,843.21,446,847.13Z" transform="translate(-296.67 -254.31)"/><path class="cls-2" d="M411.88,831.59v10.16l.45.1q.85-2.39,1.72-4.77l1.37-3.83c.69-1.9.69-1.9,2.69-1.85.31,0,.62.08,1.05.13a37.76,37.76,0,0,1-2.69,7.71,14.29,14.29,0,0,0-.32,12.79,103.85,103.85,0,0,1,3.41,10.46,1.7,1.7,0,0,1,0,.54,9.25,9.25,0,0,1-.92.12c-2.16.07-2.16.06-2.79-2a103.62,103.62,0,0,0-3.91-11.07V853c0,2.8,0,5.6,0,8.4,0,1.76-.06,1.78-1.69,1.77s-1.58,0-1.58-1.65c0-9.27,0-18.55,0-27.83C408.6,831.91,409.19,830.87,411.88,831.59Z" transform="translate(-296.67 -254.31)"/><path class="cls-2" d="M531,831.66c-1.46,4.06-2.86,8.12-4.39,12.13a5.08,5.08,0,0,0-.12,3.68c1.48,4.38,2.84,8.8,4.24,13.2.24.76.44,1.52.68,2.35a9.64,9.64,0,0,1-1,.13c-2.39,0-2.07.24-2.78-2-1.14-3.63-2.29-7.26-3.75-10.92-.05.55-.13,1.11-.14,1.66,0,3.2,0,6.39,0,9.59,0,1.66,0,1.66-1.53,1.68s-1.69,0-1.69-1.53q0-14.26,0-28.52a1.78,1.78,0,0,1,2.58-1.74c.73.24.63.83.63,1.37q0,3.24,0,6.47v2.87a13.37,13.37,0,0,0,1.63-3.78c.54-1.51,1.08-3,1.6-4.51C527.86,831.12,527.86,831.12,531,831.66Z" transform="translate(-296.67 -254.31)"/><path class="cls-2" d="M380,831.47h11.9c-3,9.53-6.57,18.72-9.55,28.42h9.39c-.62,2.86-1,3.23-3.41,3.26-3.51,0-7,0-10.52,0a3,3,0,0,1,.33-2.15q4.1-12,8.21-24c.16-.45.35-.89.48-1.35.24-.8-.08-1.23-.92-1.24h-2.16C381.11,834.41,381.11,834.41,380,831.47Z" transform="translate(-296.67 -254.31)"/><path class="cls-2" d="M495.19,853.42c0,1.6,0,2.79,0,4a9.77,9.77,0,0,0,.05,1.43c.18,1.14.95,1.89,1.89,1.77a1.76,1.76,0,0,0,1.69-1.72c.12-2.72.17-5.42-1.29-7.91s-2.53-4.8-3.92-7.13c-1.73-2.92-1.82-6.06-1.53-9.29a3.91,3.91,0,0,1,.44-1.34c1.27-2.55,4.28-2.61,6.78-2,2,.53,3.22,3,2.83,5.25-.29,1.68-1.65,1.94-3.09,2.44a13.16,13.16,0,0,1-.19-3.09c-.12-1.43-.67-2-1.82-2s-1.73.59-1.82,2a11.74,11.74,0,0,0,1.24,6.73c1.4,2.51,2.65,5.1,4.11,7.58,1.76,3,1.79,6.25,1.53,9.53a3.91,3.91,0,0,1-3.85,3.6,16.06,16.06,0,0,1-2.86-.07,3.47,3.47,0,0,1-2.95-2.18,9.64,9.64,0,0,1-.26-5.65C492.4,854.15,493.79,854.08,495.19,853.42Z" transform="translate(-296.67 -254.31)"/><path class="cls-2" d="M355.78,853.68c0,1.7,0,3.21,0,4.73s.68,2.14,1.7,2.22,1.89-.72,2-2.2a13.3,13.3,0,0,0-1.54-7.86c-1.42-2.41-2.66-4.92-4-7.37a13.77,13.77,0,0,1-1.42-8.14,4.29,4.29,0,0,1,4.53-4,10.61,10.61,0,0,1,2.39.09,4.67,4.67,0,0,1,3,6.14c-.5,1.06-1.57,1.23-2.65,1.61-.53-1-.19-2.08-.31-3.06-.18-1.42-.75-2-1.9-2s-1.69.61-1.79,2.06a12.46,12.46,0,0,0,1.65,7.59c1,1.71,1.78,3.6,2.87,5.25A16,16,0,0,1,362.66,859c-.17,2.77-1.58,4.23-4.37,4.33a7.65,7.65,0,0,1-3.09-.27,4.33,4.33,0,0,1-2.69-3.67,13.65,13.65,0,0,1,0-1.92C352.5,854.83,352.72,854.56,355.78,853.68Z" transform="translate(-296.67 -254.31)"/><path class="cls-2" d="M325.63,831.73c.46-.45.95-.34,1.42-.36a1.57,1.57,0,0,1,1.92,1.57c.38,2.6.91,5.18,1.38,7.77a10.66,10.66,0,0,0,.9,3c.59-3.29,1.16-6.58,1.77-9.86.49-2.61.52-2.61,3.49-2.25-.62,3-1.08,6.06-1.9,9a62.07,62.07,0,0,0-1.89,19.19c0,.56,0,1.12,0,1.68,0,.92.07,1.78-1.3,1.7s-1.93-.39-2-1.77c-.05-2.07-.1-4.15,0-6.22a40.33,40.33,0,0,0-1.24-11.37C327.29,839.78,326.48,835.73,325.63,831.73Z" transform="translate(-296.67 -254.31)"/><path class="cls-3" d="M551.7,847.6v13.9c0,.86.18,1.79-1.27,1.69s-1.89-.26-1.91-1.76c0-3,0-6.07,0-9.11,0-6.39,0-12.78,0-19.17,0-1.73.13-1.85,1.4-1.82,1.45,0,1.77.31,1.78,1.89C551.72,838,551.7,842.81,551.7,847.6Z" transform="translate(-296.67 -254.31)"/><path class="cls-4" d="M465.19,847.38a2.59,2.59,0,0,1,.48,0" transform="translate(-296.67 -254.31)"/><path class="cls-5" d="M541,787.36c0-2.64,0-5.27,0-7.9,0-.94.34-1.3,1.26-1.22.56.06,1.12,0,1.67,0,1.56.17,2.39.89,2.41,2.44.07,4.47.08,8.94,0,13.41,0,1.73-.81,2.35-2.57,2.48-.55,0-1.11,0-1.67,0-.85.07-1.09-.34-1.08-1.13C541,792.78,541,790.07,541,787.36Z" transform="translate(-296.67 -254.31)"/><path class="cls-6" d="M442.72,847.37c0,3.75,0,7.5,0,11.25a1.73,1.73,0,0,1-1.15,1.87,2.29,2.29,0,0,1-2.26-.31,2.42,2.42,0,0,1-.72-2.18c0-2.23,0-4.47,0-6.7V837.42a13.55,13.55,0,0,1,.06-1.91c.19-1.3.79-1.76,2.12-1.74s1.9.53,1.93,1.88c.06,3,0,5.9,0,8.85Z" transform="translate(-296.67 -254.31)"/><path class="cls-7" d="M315.23,758H309c-.47,0-.94,0-1.4,0a2,2,0,0,1-2-1.45c-.3-1,.29-1.55,1-2a14.64,14.64,0,0,1,4.82-2,10.69,10.69,0,0,0,6.33-5.16c1-1.69.93-3.66,1-5.53a58,58,0,0,1,2.89-15c1.65-5.43,3.3-10.86,4.75-16.35,1.35-5.11,2.82-10.19,4-15.35,1.05-4.55,2.31-9.06,3.2-13.65,1.54-8,3.57-15.9,5.66-23.78,1.31-5,2.78-9.87,4-14.86,1-4,1.8-8,2.8-11.95,1.26-5,2.64-9.91,5.33-14.4,2.26-3.75,4.16-7.7,6.45-11.43,2.09-3.4,3.75-7,5.83-10.42,3.63-5.91,7.59-11.61,11.79-17.14,2.48-3.27,4.79-6.67,7.27-9.94,3.3-4.36,6.26-9,9.33-13.46s5.95-8.7,8.9-13.06a22.68,22.68,0,0,0,3.53-11.37,41.67,41.67,0,0,0-3-19.3c-2.5-6.15-5.37-12.16-7.58-18.43-.92-2.61-2.05-5.19-2.14-8a36.24,36.24,0,0,1,.13-4.17c.57-6.25.45-12.52.42-18.78,0-3.85-1.07-7.57-1.72-11.33a27.82,27.82,0,0,1-.68-8.29,9.76,9.76,0,0,1,2.73-5.76c3-3.07,6-6.11,8.93-9.19A107.94,107.94,0,0,0,414,410c2.48-3.8,4.49-7.86,6.68-11.82.6-1.08.2-1.74-1-1.74-1.76,0-3.51.16-5.26.13-2.74,0-5.45-.26-7.85-1.84-2-1.3-3.62-3-1.87-5.89a4.34,4.34,0,0,0,.15-3.17,2,2,0,0,1,.05-1.47c.54-.82,1.25-1.56.4-2.6-.14-.17,0-.58.26-.71.93-.52.69-1.16.26-1.84a1.6,1.6,0,0,1,.37-2.25,36,36,0,0,1,4.13-3,6.62,6.62,0,0,0,2.89-4.45c.49-3.53,2.14-6.54,3.76-9.64,2.42-4.63,6.34-6.65,11.28-7.08a5.64,5.64,0,0,0,4.76-3c1.19-2,2.58-3.86,3.93-5.76A30.64,30.64,0,0,0,441.4,333c.67-2.74,1.64-5.39,2.45-8.09a133.69,133.69,0,0,0,4.44-17.15,9.93,9.93,0,0,0-.61-5.89c-2.68-5.87-4.73-12-6.91-18.07-.65-1.81-1.51-3.55-2.25-5.34a8.72,8.72,0,0,1-.68-2.57c-.07-.87-.13-1.83.83-2.2s1.74.26,2.21,1.07c1,1.71,1.94,3.44,2.88,5.18a7.16,7.16,0,0,0,1.08,1.64c1.79,1.91,4.28,1.41,5.13-1.06a43.44,43.44,0,0,0,2-9.27c.59-5,1.1-10,1.66-15a4.71,4.71,0,0,1,.28-1.12,1.16,1.16,0,0,1,1.14-.83c.65,0,.82.48.95,1a20.7,20.7,0,0,1,.38,3.68c.27,4.44.17,8.89.33,13.34.15,4.21.49,8.41.69,12.62a5.3,5.3,0,0,0,1.76,3.75,89.31,89.31,0,0,1,8.73,9.82,34.1,34.1,0,0,1,2.84,4.53c1.35,2.49.9,5-.21,7.45-1.69,3.79-3.95,7.27-5.94,10.9-3.71,6.74-7.57,13.41-10.9,20.35-1.18,2.46-1.26,5.24-1.66,7.91-.21,1.37-.27,2.76-.43,4.14a2.74,2.74,0,0,0,.83,2.54,18.7,18.7,0,0,1,5.85,10c1.94,7.54,1.73,14.82-3.15,21.35a6.5,6.5,0,0,0-1.08,6.91c1.83,4.83,2.28,10,2.68,15.1a54.86,54.86,0,0,1-.73,13.73,46.63,46.63,0,0,1-3.42,9.95c-3.38,8.05-6.82,16.06-9.27,24.47-1.58,5.41-3.19,10.81-4.3,16.34-1.26,6.25-1.31,12.41,1.17,18.44a34.37,34.37,0,0,0,9,12.72,95.76,95.76,0,0,1,13.66,14.59,30.24,30.24,0,0,1,6.3,17.85c.06,4.25.08,8.51.25,12.75.24,5.93.82,11.79,3.28,17.32a102.17,102.17,0,0,0,5.46,10.35c3.76,6.41,7.17,13,10.39,19.7,1.88,3.93,4.29,7.62,6.33,11.48,3.36,6.38,7.51,12.28,11.22,18.44,2,3.28,3.58,6.78,5.93,9.84,5.58,7.29,9.53,15.48,13,23.91A133.56,133.56,0,0,1,530.84,679c1.28,5,2,10.16,3.36,15.15,1.82,6.76,4,13.41,7.82,19.38a34.9,34.9,0,0,0,6.88,7.22,6.53,6.53,0,0,1,2.18,7.31,9.67,9.67,0,0,1-3.4,4.74c-1.86,1.52-3.86,2.87-5.66,4.48-2.33,2.07-3.44,4.94-5,7.47-1.45,2.29-2.85,4.62-4.13,7-1.89,3.52-5,5.15-8.79,5.49-3.22.28-6.46.4-9.69.55-.65,0-1.49.19-1.77-.72a1.68,1.68,0,0,1,1-2.12c1.18-.59,2.4-1.11,3.6-1.65a16.61,16.61,0,0,0,8.82-9.43,15.59,15.59,0,0,0,.66-4.8,69.06,69.06,0,0,0-.21-7.88c-.13-3.17-.35-6.34-.44-9.5-.09-3.36-1.3-6.42-2.3-9.54a175.36,175.36,0,0,0-11.51-28c-3.78-7.22-7.06-14.72-11.4-21.65-4-6.4-7.79-12.92-11.87-19.28-4.57-7.11-9.16-14.18-14-21.08-2.89-4.09-5.77-8.17-8.83-12.12-2-2.58-4.27-4.91-6.07-7.64-3.43-5.21-7.34-10.09-10.8-15.29a136.82,136.82,0,0,1-6.79-11.88,99.22,99.22,0,0,0-6.59-10.92c-.12-.16-.22-.32-.35-.47-1.14-1.38-1.75-1.42-3.05-.21-1,.93-2.05,1.8-3,2.77-3,3-6.22,5.74-9.14,8.81a149,149,0,0,0-11.21,13.51A106.54,106.54,0,0,1,392.22,607c-4.27,3.55-8.55,7.09-13,10.43-3.26,2.45-6.43,5-9.65,7.53a3,3,0,0,0-1.28,2.34c-.59,8.13-1.91,16.18-3.09,24.24-.82,5.59-1.57,11.18-3.42,16.54a144.5,144.5,0,0,1-9.66,21.7c-3.08,5.68-6.22,11.33-8.9,17.2-.83,1.83-2,3.48-2.51,5.47a9.52,9.52,0,0,0,.69,6.54c.56,1.23,1.13,2.46,1.61,3.72a7.41,7.41,0,0,1-3.36,9.54,20,20,0,0,0-8.49,9.18,26.15,26.15,0,0,0-1.89,8,13.84,13.84,0,0,1-2.33,6.23,5.26,5.26,0,0,1-4.58,2.33c-2.38,0-4.76,0-7.14,0Z" transform="translate(-296.67 -254.31)"/></svg>