<?xml version="1.0" encoding="UTF-8"?>
<!-- Generator: Adobe Illustrator 16.0.0, SVG Export Plug-In . SVG Version: 6.00 Build 0)  -->
<!DOCTYPE svg PUBLIC "-//W3C//DTD SVG 1.1 Tiny//EN" "http://www.w3.org/Graphics/SVG/1.1/DTD/svg11-tiny.dtd">
<svg version="1.1" baseProfile="tiny" id="Layer_1" xmlns="http://www.w3.org/2000/svg" xmlns:xlink="http://www.w3.org/1999/xlink" x="0px" y="0px" width="70px" height="52px" viewBox="0 0 70 52" xml:space="preserve">
<g>
	<rect x="0.025" y="-0.18" fill="#E80808" width="70" height="52.5"/>
	<polygon fill="#FFFFFF" points="64.775,5.087 60.981,26.068 60.967,26.068 64.775,47.049 60.967,47.049 58.43,33.488    55.902,47.049 52.095,47.049 55.889,26.068 55.902,26.068 52.095,5.087 55.902,5.087 58.441,19.18 60.967,5.087  "/>
	<path fill="#FFFFFF" d="M41.953,10.158v31.82c0,1.055,0.855,1.908,1.906,1.908c1.054,0,1.906-0.854,1.906-1.908v-31.82   c0-1.055-0.853-1.909-1.906-1.909C42.809,8.249,41.953,9.104,41.953,10.158 M38.143,42.002V10.158c0-3.162,2.561-5.729,5.717-5.729   c3.16,0,5.719,2.566,5.719,5.729v31.844c-0.012,3.152-2.566,5.703-5.719,5.703C40.709,47.705,38.154,45.154,38.143,42.002"/>
	<polygon fill="#FFFFFF" points="35.607,5.087 31.965,47.049 26.619,47.049 22.927,5.087 26.734,5.087 29.273,34.234 31.799,5.087     "/>
</g>
</svg>