<svg id="Layer_1" data-name="Layer 1" xmlns="http://www.w3.org/2000/svg" width="403.5" height="277.52" viewBox="0 0 403.5 277.52"><title>Skoda Auto logo - Brandlogos.net</title><path d="M371.75,245.45a90.63,90.63,0,1,1-38.86,11.71A90.64,90.64,0,0,1,371.75,245.45Zm2.74,7.71a82.79,82.79,0,1,0,46,11.83,82.79,82.79,0,0,0-46-11.83Z" transform="translate(-182.25 -245.24)" style="fill:#0d392e"/><path d="M354.46,267.7A74.86,74.86,0,0,1,381.92,264a6.74,6.74,0,0,1,2.86.49,80.33,80.33,0,0,1,23.54,30.53,88,88,0,0,1,6.1,43.58A113.33,113.33,0,0,1,406.76,370H414c.71-1.84,1.35-3.7,2.1-5.53a37.84,37.84,0,0,1,22.27,11.07,37.28,37.28,0,0,1-22.29,11.07c-.69-1.81-1.39-3.6-2-5.41H347.25a6,6,0,0,0-3.09,1.12c-2.45,1.23-4.87,2.52-7.32,3.75a5.73,5.73,0,0,1-2.87.51h-8.63a77.5,77.5,0,0,1-14.51-22.05H330.5a10.13,10.13,0,0,1,4.16.44q4.9,2.11,9.8,4.27c2.47,1.45,5.42.59,8.14.81a45.61,45.61,0,0,0-5.9-19.85,40.54,40.54,0,0,0-14.89-14,87.49,87.49,0,0,0-26.06-9.07,71.48,71.48,0,0,1,9.29-27.27,147.45,147.45,0,0,1,18.87,5.64,76.78,76.78,0,0,1,18.59,9.65l1.84-.9a71.64,71.64,0,0,0-12.42-11,184.85,184.85,0,0,0-20.28-12.86A71.74,71.74,0,0,1,343,272.72a62.08,62.08,0,0,1,15.58,9.21,158.21,158.21,0,0,1,19.89,19l2.37-.63C374.79,287.59,365.11,276.87,354.46,267.7Zm32.92,76.46a9,9,0,1,0,8.11,1.39A9,9,0,0,0,387.38,344.16Z" transform="translate(-182.25 -245.24)" style="fill:#0d392e"/><path d="M188.18,469.09a12.89,12.89,0,0,1,8.82-2.8v18.86a2.75,2.75,0,0,0,2.85,2.66H238a12.5,12.5,0,0,1,8.67,3.13,11.41,11.41,0,0,1,3.51,8.26v11.44a12.21,12.21,0,0,1-4.8,9.61,12.62,12.62,0,0,1-7.77,2.47H182.25c2.52-4,5.07-8.06,7.54-12.08h44.1a2.75,2.75,0,0,0,3-2.43c0-.08,0-.17,0-.25v-8.11H196.56a13.51,13.51,0,0,1-8.57-2.62,11.13,11.13,0,0,1-4.17-8.6V478.29A12.13,12.13,0,0,1,188.18,469.09Z" transform="translate(-182.25 -245.24)" style="fill:#0d392e"/><path d="M202.64,466.31H249c-2.4,3.87-4.88,7.69-7.25,11.57-10.58.12-21.17,0-31.75,0Z" transform="translate(-182.25 -245.24)" style="fill:#0d392e"/><path d="M264.79,466.32h13.52V488h18.92c7.42-7.21,14.8-14.5,22.27-21.68h18.59l-29.67,28.56q14.67,13.92,29.32,27.86H319l-22.74-22H278.44v22H264.93Q264.79,494.52,264.79,466.32Z" transform="translate(-182.25 -245.24)" style="fill:#0d392e"/><path d="M357.78,466.8a25.8,25.8,0,0,1,5.49-.44h30.41a20.41,20.41,0,0,1,15.76,7.59,20,20,0,0,1,4.29,12.35v16.78a19.85,19.85,0,0,1-7.45,15.21,21.05,21.05,0,0,1-13,4.41H365.18a40,40,0,0,1-6-.24,19.84,19.84,0,0,1-17.37-19.8V485.89a19.89,19.89,0,0,1,6.66-14.48A20.43,20.43,0,0,1,357.78,466.8Zm2.2,12.45a6.54,6.54,0,0,0-4.73,6.3V503.8a6.52,6.52,0,0,0,6.52,6.27h32a6.52,6.52,0,0,0,6.51-6.23V485.25a6.52,6.52,0,0,0-6.54-6.2H364.08a16.57,16.57,0,0,0-4.09.17Z" transform="translate(-182.25 -245.24)" style="fill:#0d392e"/><path d="M428.83,466.32h49A21,21,0,0,1,489,469.43a19.87,19.87,0,0,1,9.33,16.07v11.42c0,3.82.32,8.08-1,11.93a19.79,19.79,0,0,1-13.52,13c-3.68,1.13-7.57.81-11.37.84H428.84Q428.83,494.53,428.83,466.32ZM442.35,479V510h35.87a6.56,6.56,0,0,0,6.12-4,10,10,0,0,0,.54-4.21V485.15a6.54,6.54,0,0,0-6.61-6.18Z" transform="translate(-182.25 -245.24)" style="fill:#0d392e"/><path d="M535.41,466.32H554q15.87,28.17,31.75,56.4H570.37c-1.94-3.38-3.82-6.76-5.76-10.14H537.76l-7-11.08-11.93,21.26h-15Q519.58,494.52,535.41,466.32ZM531,500.86h27c-4.49-8-9-16-13.52-24.06C540,484.79,535.58,492.85,531,500.86Z" transform="translate(-182.25 -245.24)" style="fill:#0d392e"/></svg>