<?xml version="1.0" encoding="UTF-8"?>
<svg width="183px" height="58px" viewBox="0 0 183 58" version="1.1" xmlns="http://www.w3.org/2000/svg" xmlns:xlink="http://www.w3.org/1999/xlink">
    <!-- Generator: Sketch 45.2 (43514) - http://www.bohemiancoding.com/sketch -->
    <title>Group 4</title>
    <desc>Created with Sketch.</desc>
    <defs/>
    <g id="Symbols" stroke="none" stroke-width="1" fill="none" fill-rule="evenodd">
        <g id="HEADER" transform="translate(-181.000000, -10.000000)">
            <g id="Group-4" transform="translate(181.000000, 10.000000)">
                <g id="Page-1">
                    <polygon id="Fill-39" fill="#000" points="86.7230276 36.6052356 82.907567 49.7680982 79.7981187 49.7680982 77.2984906 40.7455707 74.7993163 49.7680982 71.6889605 49.7680982 67.8734999 36.6052356 71.0977433 36.6052356 73.3877456 45.475308 75.7535217 36.6052356 78.8434595 36.6052356 81.2282925 45.475308 83.4992379 36.6052356"/>
                    <path d="M94.3649745,39.0282278 C92.1716178,39.0282278 90.5114002,40.6104029 90.5114002,43.1295416 C90.5114002,45.6482265 92.1716178,47.2490049 94.3649745,47.2490049 C96.5583312,47.2490049 98.2180951,45.6482265 98.2180951,43.1295416 C98.2180951,40.6294598 96.5583312,39.0282278 94.3649745,39.0282278 M94.3649745,49.9972799 C90.4537758,49.9972799 87.3819875,47.4599918 87.3819875,43.2062229 C87.3819875,38.950639 90.4537758,36.394294 94.3649745,36.394294 C98.2752658,36.394294 101.347508,38.950639 101.347508,43.2062229 C101.347508,47.4599918 98.2752658,49.9972799 94.3649745,49.9972799" id="Fill-40" fill="#000"/>
                    <polygon id="Fill-42" fill="#000" points="120.771465 36.6052356 116.956004 49.7680982 113.845648 49.7680982 111.346474 40.7455707 108.847299 49.7680982 105.737397 49.7680982 101.921937 36.6052356 105.14618 36.6052356 107.435729 45.475308 109.801959 36.6052356 112.89235 36.6052356 115.276729 45.475308 117.547675 36.6052356"/>
                    <path d="M155.063376,48.9096309 C154.128681,49.6533031 152.907225,49.9972345 151.495655,49.9972345 C149.587244,49.9972345 147.88982,49.0040078 146.822181,48.0130498 L148.348093,45.7620687 C149.301844,46.754388 150.771039,47.4222864 151.781962,47.4222864 C152.774281,47.4222864 153.53701,46.9454105 153.53701,46.0674326 C153.53701,45.1699441 152.563294,44.8260127 151.991587,44.6177482 C151.418973,44.407215 150.427108,44.0637373 149.988346,43.8731685 C149.664379,43.7202597 148.99648,43.4725202 148.423866,42.9194168 C147.851706,42.3844628 147.393887,41.6212799 147.393887,40.3821287 C147.393887,39.1225593 148.004161,38.1306939 148.767798,37.5004555 C149.51147,36.8715783 150.713415,36.4514193 152.240688,36.4514193 C153.765239,36.4514193 155.520741,37.1769422 156.418683,38.0735232 L155.101036,40.2292199 C154.338307,39.4664907 153.155872,38.8929693 152.163553,38.8929693 C151.171688,38.8929693 150.446619,39.2754682 150.446619,40.0772185 C150.446619,40.8780614 151.190745,41.183879 151.781962,41.4121079 C152.354576,41.6407905 153.326931,41.9838145 153.74709,42.1571414 C154.10917,42.2896321 154.987148,42.6331098 155.578819,43.2252344 C156.131923,43.7769766 156.609252,44.5800881 156.609252,45.7620687 C156.609252,47.0220918 156.017581,48.1664124 155.063376,48.9096309" id="Fill-43" fill="#000"/>
                    <path d="M111.055176,27.7823063 L112.695429,23.3148281 L114.336136,27.7823063 L111.055176,27.7823063 Z M114.271706,19.676778 L110.350071,19.676778 L110.760248,20.9603953 L106.208828,32.8364644 L109.414469,32.8364644 L110.349163,30.1861962 L115.042148,30.1861962 L115.976843,32.8364644 L119.334938,32.8364644 L114.271706,19.676778 Z" id="Fill-45" fill="#000"/>
                    <polygon id="Fill-46" fill="#000" points="50.0605306 19.6768234 50.5274243 22.3248229 50.5306004 32.8365098 53.6014813 32.8365098 53.6014813 28.5074208 54.6514249 27.3426821 57.9514421 32.8365098 61.6525614 32.8365098 56.6927802 24.9192816 61.329048 19.6736472 57.6655888 19.6736472 53.6014813 24.4805195 53.6014813 19.6736472"/>
                    <polygon id="Fill-47" fill="#000" points="92.314 19.6729666 88.4028012 19.6729666 85.6940012 28.333867 85.6563412 28.333867 82.9153259 19.6956534 78.483239 19.6956534 78.7976776 22.3436529 78.0245125 32.8362829 81.0577334 32.8362829 81.5346092 23.8700186 81.5922336 23.8700186 84.4348856 32.8362829 86.8768893 32.8362829 89.7004844 23.8700186 89.7376906 23.8700186 90.2540415 32.8362829 93.2872623 32.8362829"/>
                    <polygon id="Fill-48" fill="#000" points="129.749435 19.6729666 129.736277 28.419623 124.173028 19.6956534 120.491419 19.6956534 120.858945 22.1685111 120.858945 32.8362829 123.873109 32.8362829 123.900333 23.9548671 129.596526 32.8362829 132.763599 32.8362829 132.763599 19.6729666"/>
                    <polygon id="Fill-49" fill="#000" points="136.247062 19.6955173 136.252506 22.2373427 136.252506 32.8366005 139.342898 32.8366005 139.342898 19.6955173"/>
                    <polygon id="Fill-50" fill="#000" points="62.9187099 36.5959794 62.921886 39.0756431 62.921886 49.7683704 66.0122775 49.7683704 66.0122775 36.6050541"/>
                    <path d="M145.86861,27.7823063 L147.508864,23.3148281 L149.150024,27.7823063 L145.86861,27.7823063 Z M149.08514,19.676778 L145.163506,19.676778 L145.574136,20.9603953 L141.022717,32.8364644 L144.228357,32.8364644 L145.163506,30.1861962 L149.855583,30.1861962 L150.790278,32.8364644 L154.148827,32.8364644 L149.08514,19.676778 Z" id="Fill-51" fill="#000"/>
                    <path d="M125.298518,44.6844019 L126.938772,40.2169236 L128.579479,44.6844019 L125.298518,44.6844019 Z M128.515048,36.5788736 L124.592506,36.5788736 L125.004044,37.8624909 L120.452171,49.7390137 L123.657357,49.7390137 L124.592506,47.0887455 L129.285491,47.0887455 L130.220186,49.7390137 L133.578735,49.7390137 L128.515048,36.5788736 Z" id="Fill-52" fill="#000"/>
                    <polygon id="Fill-53" fill="#000" points="158.700292 36.6546928 159.167185 39.3026923 159.170361 49.8148329 162.24215 49.8148329 162.24215 45.4848364 163.291186 44.3210053 166.59211 49.8148329 170.292322 49.8148329 165.332087 41.8976047 169.968809 36.6515166 166.305803 36.6515166 162.24215 41.4583889 162.24215 36.6515166"/>
                    <path d="M174.548405,44.7602211 L176.188659,40.2927428 L177.829819,44.7602211 L174.548405,44.7602211 Z M177.765843,36.6546928 L173.843301,36.6546928 L174.253024,37.9383101 L169.70115,49.8148329 L172.907244,49.8148329 L173.841939,47.1645647 L178.535378,47.1645647 L179.470073,49.8148329 L182.82726,49.8148329 L177.765843,36.6546928 Z" id="Fill-54" fill="#000"/>
                    <g id="Group-2">
                        <g id="Group-38" transform="translate(0.000000, 0.125231)">
                            <path d="M45.6352951,25.1399785 C45.6352951,25.1399785 43.2758713,10.6326981 27.7871613,8.06954711 C27.6510407,8.04595287 27.5049379,8.03143334 27.3665486,8.00965404 L27.4014862,8.01010778 C25.5556908,7.73877404 25.9567929,6.07311156 25.9567929,6.07311156 C25.9567929,6.07311156 26.6795933,2.19049816 26.803463,1.42277794 C26.961363,0.440894641 25.0379788,-0.222466443 24.4440392,0.9486245 C23.4390154,2.93008678 22.152222,5.40203698 21.4915833,6.5536173 C21.0673407,7.29365966 20.6544416,7.67298241 20.1353683,7.85356908 C3.65570035,9.74383055 0.376101233,24.8445968 0.376101233,24.8445968 C0.442346594,24.8554864 0.506777014,24.8595701 0.57256864,24.8686448 C0.57256864,24.870006 0.570753699,24.8772657 0.570753699,24.8772657 C8.04831229,26.0851092 13.3356903,17.5022513 15.7531923,17.6401869 C17.4651358,18.1951052 18.3213344,25.6985267 22.9698531,26.7180701 C22.9698531,26.7180701 23.0261162,26.7257836 23.1027975,26.7344045 C23.1236693,26.7389419 23.14318,26.7462016 23.1640518,26.750739 C23.1640518,26.750739 23.5057145,26.7983812 23.6740503,26.7897602 C28.5244812,26.4140674 29.3498258,17.9600703 31.1393581,17.7322952 C31.2056034,17.7236742 31.2745712,17.7245817 31.3439927,17.7300265 C33.5015043,18.2327652 37.1586112,24.266538 42.8021715,25.108217 C43.6960302,25.2615796 44.6384385,25.2892574 45.6352951,25.1399785 M3.38708903,28.1636709 C3.15523026,29.0194158 2.38841752,33.3979619 4.18611698,37.2814828 C4.19882157,37.2783066 4.21152616,37.2746767 4.22423075,37.2715006 C4.22604569,37.2751305 4.2274069,37.2787604 4.2287681,37.2823902 C8.74388859,36.1875268 11.9576961,34.1293833 13.7749062,31.1220254 C15.0067976,29.0870223 15.3244124,26.7988349 15.4110758,24.93852 C15.4705152,23.7343064 14.9981767,22.7283751 14.2626717,22.7955279 C14.0072187,22.8041489 13.7190967,22.9407233 13.408288,23.2506245 C11.4535961,25.2193822 7.98569681,27.8923371 3.38708903,28.1636709 M13.5235368,36.1566728 C11.8556056,37.761081 9.82060258,38.8790849 7.31734464,39.8187709 C7.2256901,41.4186417 7.93351725,44.0357872 9.40407352,46.3856826 C10.8374235,48.6811297 12.5516357,50.4189361 13.4790707,50.9253048 C13.6964099,51.0437297 13.8583935,51.1004466 13.9908842,51.1063452 C14.3820041,51.1562561 14.5049663,50.7751184 14.7994406,49.9969623 C15.4215118,48.3671449 16.4805301,46.9265351 17.4692194,45.946013 C18.3435674,45.0730262 19.1879689,44.4142025 19.1766255,43.5339559 C19.1729956,43.0389307 18.6484776,42.6881932 17.9742268,42.0334531 C16.149757,40.4163403 14.70098,38.282423 13.5666416,36.1575803 C13.5571132,36.166655 13.5475848,36.1743685 13.5380563,36.1829895 C13.533519,36.1743685 13.5285279,36.1652938 13.5235368,36.1566728 M21.5296971,45.7186916 C19.5541333,48.6012723 17.4097801,51.2574391 18.6298744,54.2942898 C19.7084034,56.9617999 22.2747305,57.415989 23.2389181,57.4668074 L23.2411868,57.4772433 C23.2434555,57.4727059 23.2575213,57.4695298 23.2643273,57.4749746 C23.2697721,57.4727059 23.2815693,57.4727059 23.2861066,57.4822344 L23.2861066,57.477697 C23.2897365,57.4745209 23.3006261,57.4713447 23.3074322,57.4758821 C23.3124233,57.4740671 23.3242204,57.4740671 23.3292115,57.4826881 L23.3296652,57.4717984 C24.2983902,57.4191651 26.86018,56.9785881 27.9514135,54.3160691 C29.1882961,51.283302 27.0493876,48.6185143 25.0869822,45.7295813 C24.429066,44.756319 23.68494,43.7467578 23.6863012,42.772588 C23.6894773,41.4980454 24.7317074,40.5869448 25.3329068,40.0597043 C27.5439591,38.1081886 28.4264744,37.0124177 29.2527265,35.7124659 C30.6044041,33.5839934 30.2042095,31.4709479 29.1851199,30.3456842 C28.4142235,29.4890318 27.5344307,29.1823068 26.7517372,29.1496378 C26.1487229,29.1169689 25.6006106,29.2490058 25.2008698,29.423694 C24.3628206,29.7903121 23.7384807,30.1941366 23.3636953,30.2032113 C22.9095063,30.1864231 22.3214652,29.7866822 21.4870459,29.4191566 C21.1399384,29.2662478 20.6798507,29.1455542 20.1693985,29.1360257 C19.3304418,29.1101628 18.3481048,29.382404 17.5005271,30.3170989 C16.4773539,31.4423625 16.0644547,33.5531394 17.4125025,35.693409 C18.2287724,36.9874623 19.1008517,38.0918541 21.3123578,40.0469997 C21.9081123,40.5787776 22.9480738,41.4944155 22.9399065,42.7757641 C22.9435364,43.7435817 22.1889745,44.7522353 21.5296971,45.7186916 M27.4350627,43.5335022 C27.424173,44.4137488 28.2681208,45.0721188 29.1433763,45.9451056 C30.1311581,46.9256277 31.1901764,48.3666911 31.8136088,49.9956011 C32.1058144,50.7701273 32.2287766,51.1526262 32.6153592,51.1067989 C32.7492111,51.1022616 32.9130096,51.0469059 33.1339787,50.926666 C34.0600525,50.4198436 35.7742647,48.6820372 37.2080684,46.3870438 C38.6786247,44.0366947 39.3864518,41.4195492 39.2943435,39.8201321 C36.7915393,38.8795387 34.7574438,37.7619885 33.0872439,36.1575803 C33.0827066,36.1657475 33.0781692,36.1743685 33.0736319,36.1825358 C33.0641034,36.173461 33.0541213,36.1652938 33.0450465,36.1566728 C31.9111619,38.2810618 30.4619312,40.4158866 28.6374613,42.0325456 C27.9632106,42.686832 27.4386925,43.0384769 27.4350627,43.5335022 M42.4478042,37.2814828 C42.4491654,37.2787604 42.4500729,37.2755842 42.4514341,37.2724081 C42.4645924,37.2755842 42.477297,37.2792141 42.4904554,37.2823902 C44.2877011,33.3988694 43.5213421,29.0203232 43.2894833,28.1645784 C38.6899681,27.8932446 35.2229762,25.2202897 33.2682843,23.2519857 C32.9611055,22.9452606 32.6761597,22.8082325 32.4225216,22.7964354 C31.6824793,22.7202079 31.2056034,23.7284078 31.2654965,24.9376125 C31.3521599,26.7983812 31.6697747,29.0861149 32.9016662,31.1211179 C34.7188763,34.1284758 37.9326838,36.1866194 42.4478042,37.2814828" fill="#000"/>
                            <path d="M68.9433625,21.9707278 C66.7495521,21.9707278 65.0893344,23.5542642 65.0893344,26.0720417 C65.0893344,28.5916341 66.7495521,30.1933199 68.9433625,30.1933199 C71.1371729,30.1933199 72.7973906,28.5916341 72.7973906,26.0720417 C72.7973906,23.5737748 71.1371729,21.9707278 68.9433625,21.9707278 M68.9433625,32.9406874 C65.0321637,32.9406874 61.9608292,30.4043068 61.9608292,26.1491767 C61.9608292,21.8940465 65.0321637,19.338609 68.9433625,19.338609 C72.8545612,19.338609 75.9263495,21.8940465 75.9263495,26.1491767 C75.9263495,30.4043068 72.8545612,32.9406874 68.9433625,32.9406874" fill="#000"/>
                        </g>
                        <g id="Group-63" transform="translate(49.910889, 19.182116)" fill="#000">
                            <path d="M95.5981818,30.5179675 L92.2600508,25.0808568 C92.5304771,24.996462 92.8489993,24.857619 93.1688828,24.6507157 C91.7741003,24.5844703 90.2314001,24.5177712 89.4713934,25.6512021 L92.1452558,30.5179675 L95.5981818,30.5179675 Z" id="Fill-55"/>
                            <path d="M89.8365596,17.3912677 L84.8146167,17.3944438 L85.1984768,19.9807353 L85.1984768,30.5541302 L88.289322,30.5541302 L88.282516,26.4623448 L89.8433656,26.4623448 C91.1977656,26.4623448 95.2264818,26.393377 95.2264818,21.9163703 C95.2264818,20.0065982 93.8748042,17.3912677 89.8365596,17.3912677 M89.6727611,24.0784193 L88.2779786,24.0784193 L88.2707189,19.7747395 L89.6142293,19.7747395 C91.512658,19.7747395 92.0984303,21.0728763 92.0984303,21.9163703 C92.0984303,22.8542413 91.8007799,24.0784193 89.6727611,24.0784193" id="Fill-57"/>
                            <path d="M51.016188,0.444161536 L46.4370908,0.447337683 L46.4348221,3.03362919 L46.4348221,13.6070241 L49.5261211,13.6070241 L49.5197688,10.1187067 L50.6981195,10.1187067 C52.1246635,10.1187067 56.7913315,10.1187067 56.7913315,5.269637 C56.7913315,3.47738236 55.5748671,0.444161536 51.016188,0.444161536 M50.72126,7.70801078 L49.5156852,7.70801078 L49.5070642,2.89841605 L50.7725321,2.89841605 C53.0398477,2.89841605 53.5983959,4.40799357 53.5983959,5.269637 C53.5983959,6.93756815 52.581575,7.70801078 50.72126,7.70801078" id="Fill-59"/>
                            <path d="M5.0939053,17.4593733 L0.128679346,17.4625495 L0.512539453,20.048841 L0.512539453,30.6222359 L3.6038384,30.6222359 L3.59748611,27.1339185 L5.1016188,27.1339185 C6.52816274,27.1339185 10.8690489,27.1339185 10.8690489,22.2848488 C10.8690489,20.4925942 9.65258438,17.4593733 5.0939053,17.4593733 M4.9142261,24.7232226 L3.59340249,24.7232226 L3.58478152,19.9136279 L4.85024941,19.9136279 C7.11756497,19.9136279 7.67611318,21.4232054 7.67611318,22.2848488 C7.67611318,23.95278 6.7740873,24.7232226 4.9142261,24.7232226" id="Fill-61"/>
                        </g>
                    </g>
                </g>
            </g>
        </g>
    </g>
</svg>